<mxfile host="Electron" modified="2023-06-23T13:39:18.777Z" agent="Mozilla/5.0 (Windows NT 10.0; Win64; x64) AppleWebKit/537.36 (KHTML, like Gecko) draw.io/21.5.0 Chrome/112.0.5615.204 Electron/24.5.1 Safari/537.36" etag="uXjLQhobmkHrOdpcg5q0" version="21.5.0" type="device">
  <diagram name="Page-1" id="TN5jjGIb1_J6kGVXwqvO">
    <mxGraphModel dx="4877" dy="1475" grid="0" gridSize="10" guides="1" tooltips="1" connect="1" arrows="1" fold="1" page="0" pageScale="1" pageWidth="850" pageHeight="1100" background="none" math="0" shadow="0">
      <root>
        <mxCell id="0" />
        <mxCell id="1" parent="0" />
        <mxCell id="WScAQku72tEY1aJVm6O7-21" value="" style="shape=singleArrow;whiteSpace=wrap;html=1;" parent="1" vertex="1">
          <mxGeometry x="-1713" y="76" width="100" height="60" as="geometry" />
        </mxCell>
        <mxCell id="WScAQku72tEY1aJVm6O7-30" value="com.paymaytrix.loginsystem" style="shape=folder;fontStyle=1;tabWidth=297;tabHeight=39;tabPosition=left;html=1;boundedLbl=1;labelInHeader=1;container=1;collapsible=0;whiteSpace=wrap;" parent="1" vertex="1">
          <mxGeometry x="-1676" y="22" width="856" height="646" as="geometry" />
        </mxCell>
        <mxCell id="WScAQku72tEY1aJVm6O7-31" value="" style="html=1;strokeColor=none;resizeWidth=1;resizeHeight=1;fillColor=none;part=1;connectable=0;allowArrows=0;deletable=0;whiteSpace=wrap;" parent="WScAQku72tEY1aJVm6O7-30" vertex="1">
          <mxGeometry width="856" height="405.3" relative="1" as="geometry">
            <mxPoint y="30" as="offset" />
          </mxGeometry>
        </mxCell>
        <mxCell id="WScAQku72tEY1aJVm6O7-32" value="«interface»&lt;br&gt;&lt;b&gt;Login Service&lt;/b&gt;" style="html=1;whiteSpace=wrap;" parent="WScAQku72tEY1aJVm6O7-30" vertex="1">
          <mxGeometry x="94" y="59.9950549450549" width="110" height="63.62637362637362" as="geometry" />
        </mxCell>
        <mxCell id="WScAQku72tEY1aJVm6O7-33" value="User" style="swimlane;fontStyle=1;align=center;verticalAlign=top;childLayout=stackLayout;horizontal=1;startSize=26;horizontalStack=0;resizeParent=1;resizeParentMax=0;resizeLast=0;collapsible=1;marginBottom=0;whiteSpace=wrap;html=1;fillColor=#f8cecc;strokeColor=#b85450;" parent="WScAQku72tEY1aJVm6O7-30" vertex="1">
          <mxGeometry x="35" y="311" width="210" height="316.13626373626374" as="geometry" />
        </mxCell>
        <mxCell id="WScAQku72tEY1aJVm6O7-34" value="+ Id: String&lt;br&gt;+ firstName : String&lt;br&gt;+ lastName : String&lt;br&gt;+ email : String&lt;br&gt;+ password : String&lt;br&gt;+ List&amp;lt;property&amp;gt; : String&lt;br&gt;+ List&amp;lt;Responsiblities&amp;gt; : String&lt;br&gt;+ active : String" style="text;strokeColor=none;fillColor=none;align=left;verticalAlign=top;spacingLeft=4;spacingRight=4;overflow=hidden;rotatable=0;points=[[0,0.5],[1,0.5]];portConstraint=eastwest;whiteSpace=wrap;html=1;" parent="WScAQku72tEY1aJVm6O7-33" vertex="1">
          <mxGeometry y="26" width="210" height="167.9736263736264" as="geometry" />
        </mxCell>
        <mxCell id="WScAQku72tEY1aJVm6O7-35" value="" style="line;strokeWidth=1;fillColor=none;align=left;verticalAlign=middle;spacingTop=-1;spacingLeft=3;spacingRight=3;rotatable=0;labelPosition=right;points=[];portConstraint=eastwest;strokeColor=inherit;" parent="WScAQku72tEY1aJVm6O7-33" vertex="1">
          <mxGeometry y="193.9736263736264" width="210" height="10.18021978021978" as="geometry" />
        </mxCell>
        <mxCell id="WScAQku72tEY1aJVm6O7-36" value="+ method(type): type" style="text;strokeColor=none;fillColor=none;align=left;verticalAlign=top;spacingLeft=4;spacingRight=4;overflow=hidden;rotatable=0;points=[[0,0.5],[1,0.5]];portConstraint=eastwest;whiteSpace=wrap;html=1;" parent="WScAQku72tEY1aJVm6O7-33" vertex="1">
          <mxGeometry y="204.15384615384616" width="210" height="111.98241758241758" as="geometry" />
        </mxCell>
        <mxCell id="WScAQku72tEY1aJVm6O7-37" value="PropertyType" style="swimlane;fontStyle=1;align=center;verticalAlign=top;childLayout=stackLayout;horizontal=1;startSize=26;horizontalStack=0;resizeParent=1;resizeParentMax=0;resizeLast=0;collapsible=1;marginBottom=0;whiteSpace=wrap;html=1;fillColor=#f8cecc;strokeColor=#b85450;" parent="WScAQku72tEY1aJVm6O7-30" vertex="1">
          <mxGeometry x="612" y="310.99725274725273" width="210" height="316.13626373626374" as="geometry" />
        </mxCell>
        <mxCell id="WScAQku72tEY1aJVm6O7-38" value="+ Id: String&lt;br&gt;+ propertyName : String&lt;br&gt;+ propertyType : String&lt;br&gt;+ address : String&lt;br&gt;+ active : String" style="text;strokeColor=none;fillColor=none;align=left;verticalAlign=top;spacingLeft=4;spacingRight=4;overflow=hidden;rotatable=0;points=[[0,0.5],[1,0.5]];portConstraint=eastwest;whiteSpace=wrap;html=1;" parent="WScAQku72tEY1aJVm6O7-37" vertex="1">
          <mxGeometry y="26" width="210" height="167.9736263736264" as="geometry" />
        </mxCell>
        <mxCell id="WScAQku72tEY1aJVm6O7-39" value="" style="line;strokeWidth=1;fillColor=none;align=left;verticalAlign=middle;spacingTop=-1;spacingLeft=3;spacingRight=3;rotatable=0;labelPosition=right;points=[];portConstraint=eastwest;strokeColor=inherit;" parent="WScAQku72tEY1aJVm6O7-37" vertex="1">
          <mxGeometry y="193.9736263736264" width="210" height="10.18021978021978" as="geometry" />
        </mxCell>
        <mxCell id="WScAQku72tEY1aJVm6O7-40" value="+ method(type): type" style="text;strokeColor=none;fillColor=none;align=left;verticalAlign=top;spacingLeft=4;spacingRight=4;overflow=hidden;rotatable=0;points=[[0,0.5],[1,0.5]];portConstraint=eastwest;whiteSpace=wrap;html=1;" parent="WScAQku72tEY1aJVm6O7-37" vertex="1">
          <mxGeometry y="204.15384615384616" width="210" height="111.98241758241758" as="geometry" />
        </mxCell>
        <mxCell id="WScAQku72tEY1aJVm6O7-41" value="&amp;lt;&amp;lt;enumeration&amp;gt;&amp;gt;&lt;br&gt;&lt;b&gt;propertyType&lt;/b&gt;" style="swimlane;fontStyle=0;align=center;verticalAlign=top;childLayout=stackLayout;horizontal=1;startSize=40;horizontalStack=0;resizeParent=1;resizeParentMax=0;resizeLast=0;collapsible=0;marginBottom=0;html=1;whiteSpace=wrap;" parent="WScAQku72tEY1aJVm6O7-30" vertex="1">
          <mxGeometry x="716" y="39.00175946547884" width="140" height="130.26726057906458" as="geometry" />
        </mxCell>
        <mxCell id="WScAQku72tEY1aJVm6O7-42" value="+ Home&lt;br&gt;+ Work&lt;br&gt;+ Other" style="text;html=1;strokeColor=none;fillColor=none;align=left;verticalAlign=middle;spacingLeft=4;spacingRight=4;overflow=hidden;rotatable=0;points=[[0,0.5],[1,0.5]];portConstraint=eastwest;whiteSpace=wrap;" parent="WScAQku72tEY1aJVm6O7-41" vertex="1">
          <mxGeometry y="40" width="140" height="90.26726057906458" as="geometry" />
        </mxCell>
        <mxCell id="WScAQku72tEY1aJVm6O7-43" value="User Management" style="swimlane;fontStyle=1;align=center;verticalAlign=top;childLayout=stackLayout;horizontal=1;startSize=26;horizontalStack=0;resizeParent=1;resizeParentMax=0;resizeLast=0;collapsible=1;marginBottom=0;whiteSpace=wrap;html=1;fillColor=#d5e8d4;strokeColor=#82b366;" parent="WScAQku72tEY1aJVm6O7-30" vertex="1">
          <mxGeometry x="280.5" y="60" width="295" height="238" as="geometry" />
        </mxCell>
        <mxCell id="WScAQku72tEY1aJVm6O7-44" value="LoginRepository" style="label;fontStyle=0;strokeColor=none;fillColor=none;align=left;verticalAlign=top;overflow=hidden;spacingLeft=28;spacingRight=4;rotatable=0;points=[[0,0.5],[1,0.5]];portConstraint=eastwest;imageWidth=16;imageHeight=16;whiteSpace=wrap;html=1;image=img/clipart/Gear_128x128.png" parent="WScAQku72tEY1aJVm6O7-43" vertex="1">
          <mxGeometry y="26" width="295" height="26" as="geometry" />
        </mxCell>
        <mxCell id="WScAQku72tEY1aJVm6O7-45" value="" style="line;strokeWidth=1;fillColor=none;align=left;verticalAlign=middle;spacingTop=-1;spacingLeft=3;spacingRight=3;rotatable=0;labelPosition=right;points=[];portConstraint=eastwest;strokeColor=inherit;" parent="WScAQku72tEY1aJVm6O7-43" vertex="1">
          <mxGeometry y="52" width="295" height="8" as="geometry" />
        </mxCell>
        <mxCell id="WScAQku72tEY1aJVm6O7-46" value="+ method(User): getUser()&lt;br&gt;&lt;br&gt;+ method(userId): deleteUser()&lt;br&gt;&lt;br&gt;+ method(User): addUser()&lt;br&gt;&lt;br&gt;+ method(userId, Property): addProperty()&lt;br&gt;&lt;br&gt;+ method(User): updateUser()&lt;br&gt;&lt;br&gt;+ method(userId, propertyId): removeProperty()" style="text;strokeColor=none;fillColor=none;align=left;verticalAlign=top;spacingLeft=4;spacingRight=4;overflow=hidden;rotatable=0;points=[[0,0.5],[1,0.5]];portConstraint=eastwest;whiteSpace=wrap;html=1;" parent="WScAQku72tEY1aJVm6O7-43" vertex="1">
          <mxGeometry y="60" width="295" height="178" as="geometry" />
        </mxCell>
        <mxCell id="WScAQku72tEY1aJVm6O7-47" value="" style="shape=actor;whiteSpace=wrap;html=1;" parent="1" vertex="1">
          <mxGeometry x="-1764" y="80" width="40" height="60" as="geometry" />
        </mxCell>
        <mxCell id="WScAQku72tEY1aJVm6O7-48" value="" style="shape=singleArrow;whiteSpace=wrap;html=1;" parent="1" vertex="1">
          <mxGeometry x="-1703" y="84" width="100" height="60" as="geometry" />
        </mxCell>
        <mxCell id="WScAQku72tEY1aJVm6O7-49" value="" style="shape=singleArrow;whiteSpace=wrap;html=1;" parent="1" vertex="1">
          <mxGeometry x="-786" y="315" width="100" height="60" as="geometry" />
        </mxCell>
        <mxCell id="WScAQku72tEY1aJVm6O7-51" value="com.paymaytrix.billmanagement" style="shape=folder;fontStyle=1;tabWidth=297;tabHeight=39;tabPosition=left;html=1;boundedLbl=1;labelInHeader=1;container=1;collapsible=0;whiteSpace=wrap;" parent="1" vertex="1">
          <mxGeometry x="-644" y="32" width="856" height="646" as="geometry" />
        </mxCell>
        <mxCell id="WScAQku72tEY1aJVm6O7-52" value="" style="html=1;strokeColor=none;resizeWidth=1;resizeHeight=1;fillColor=none;part=1;connectable=0;allowArrows=0;deletable=0;whiteSpace=wrap;" parent="WScAQku72tEY1aJVm6O7-51" vertex="1">
          <mxGeometry width="856" height="405.3" relative="1" as="geometry">
            <mxPoint y="30" as="offset" />
          </mxGeometry>
        </mxCell>
        <mxCell id="WScAQku72tEY1aJVm6O7-53" value="«interface»&lt;br&gt;&lt;b&gt;Bill Service&lt;/b&gt;" style="html=1;whiteSpace=wrap;" parent="WScAQku72tEY1aJVm6O7-51" vertex="1">
          <mxGeometry x="94" y="59.9950549450549" width="110" height="63.62637362637362" as="geometry" />
        </mxCell>
        <mxCell id="WScAQku72tEY1aJVm6O7-54" value="BILL" style="swimlane;fontStyle=1;align=center;verticalAlign=top;childLayout=stackLayout;horizontal=1;startSize=26;horizontalStack=0;resizeParent=1;resizeParentMax=0;resizeLast=0;collapsible=1;marginBottom=0;whiteSpace=wrap;html=1;fillColor=#f8cecc;strokeColor=#b85450;" parent="WScAQku72tEY1aJVm6O7-51" vertex="1">
          <mxGeometry x="35" y="311" width="210" height="316.13626373626374" as="geometry" />
        </mxCell>
        <mxCell id="WScAQku72tEY1aJVm6O7-55" value="+ Id: String&lt;br&gt;+ BillName: String&lt;br&gt;+ BillType : BillType&lt;br&gt;+ isSubscribed: boolean" style="text;strokeColor=none;fillColor=none;align=left;verticalAlign=top;spacingLeft=4;spacingRight=4;overflow=hidden;rotatable=0;points=[[0,0.5],[1,0.5]];portConstraint=eastwest;whiteSpace=wrap;html=1;" parent="WScAQku72tEY1aJVm6O7-54" vertex="1">
          <mxGeometry y="26" width="210" height="167.9736263736264" as="geometry" />
        </mxCell>
        <mxCell id="WScAQku72tEY1aJVm6O7-56" value="" style="line;strokeWidth=1;fillColor=none;align=left;verticalAlign=middle;spacingTop=-1;spacingLeft=3;spacingRight=3;rotatable=0;labelPosition=right;points=[];portConstraint=eastwest;strokeColor=inherit;" parent="WScAQku72tEY1aJVm6O7-54" vertex="1">
          <mxGeometry y="193.9736263736264" width="210" height="10.18021978021978" as="geometry" />
        </mxCell>
        <mxCell id="WScAQku72tEY1aJVm6O7-57" value="+ method(type): type" style="text;strokeColor=none;fillColor=none;align=left;verticalAlign=top;spacingLeft=4;spacingRight=4;overflow=hidden;rotatable=0;points=[[0,0.5],[1,0.5]];portConstraint=eastwest;whiteSpace=wrap;html=1;" parent="WScAQku72tEY1aJVm6O7-54" vertex="1">
          <mxGeometry y="204.15384615384616" width="210" height="111.98241758241758" as="geometry" />
        </mxCell>
        <mxCell id="WScAQku72tEY1aJVm6O7-58" value="BillType &amp;lt;&amp;lt;Interface&amp;gt;&amp;gt;" style="swimlane;fontStyle=1;align=center;verticalAlign=top;childLayout=stackLayout;horizontal=1;startSize=26;horizontalStack=0;resizeParent=1;resizeParentMax=0;resizeLast=0;collapsible=1;marginBottom=0;whiteSpace=wrap;html=1;fillColor=#fff2cc;strokeColor=#d6b656;gradientColor=#ffd966;" parent="WScAQku72tEY1aJVm6O7-51" vertex="1">
          <mxGeometry x="612" y="310.99725274725273" width="210" height="316.13626373626374" as="geometry" />
        </mxCell>
        <mxCell id="WScAQku72tEY1aJVm6O7-59" value="+ Id: String&lt;br&gt;+ BillTypeName : String&lt;br&gt;+ propertyType : String&lt;br&gt;+ active : String" style="text;strokeColor=none;fillColor=none;align=left;verticalAlign=top;spacingLeft=4;spacingRight=4;overflow=hidden;rotatable=0;points=[[0,0.5],[1,0.5]];portConstraint=eastwest;whiteSpace=wrap;html=1;" parent="WScAQku72tEY1aJVm6O7-58" vertex="1">
          <mxGeometry y="26" width="210" height="167.9736263736264" as="geometry" />
        </mxCell>
        <mxCell id="WScAQku72tEY1aJVm6O7-60" value="" style="line;strokeWidth=1;fillColor=none;align=left;verticalAlign=middle;spacingTop=-1;spacingLeft=3;spacingRight=3;rotatable=0;labelPosition=right;points=[];portConstraint=eastwest;strokeColor=inherit;" parent="WScAQku72tEY1aJVm6O7-58" vertex="1">
          <mxGeometry y="193.9736263736264" width="210" height="10.18021978021978" as="geometry" />
        </mxCell>
        <mxCell id="WScAQku72tEY1aJVm6O7-61" value="+ method(type): type" style="text;strokeColor=none;fillColor=none;align=left;verticalAlign=top;spacingLeft=4;spacingRight=4;overflow=hidden;rotatable=0;points=[[0,0.5],[1,0.5]];portConstraint=eastwest;whiteSpace=wrap;html=1;" parent="WScAQku72tEY1aJVm6O7-58" vertex="1">
          <mxGeometry y="204.15384615384616" width="210" height="111.98241758241758" as="geometry" />
        </mxCell>
        <mxCell id="WScAQku72tEY1aJVm6O7-62" value="Bill Management" style="swimlane;fontStyle=1;align=center;verticalAlign=top;childLayout=stackLayout;horizontal=1;startSize=26;horizontalStack=0;resizeParent=1;resizeParentMax=0;resizeLast=0;collapsible=1;marginBottom=0;whiteSpace=wrap;html=1;fillColor=#d5e8d4;strokeColor=#82b366;" parent="WScAQku72tEY1aJVm6O7-51" vertex="1">
          <mxGeometry x="280.5" y="60" width="295" height="224" as="geometry" />
        </mxCell>
        <mxCell id="WScAQku72tEY1aJVm6O7-63" value="BiillRepository" style="label;fontStyle=0;strokeColor=none;fillColor=none;align=left;verticalAlign=top;overflow=hidden;spacingLeft=28;spacingRight=4;rotatable=0;points=[[0,0.5],[1,0.5]];portConstraint=eastwest;imageWidth=16;imageHeight=16;whiteSpace=wrap;html=1;image=img/clipart/Gear_128x128.png" parent="WScAQku72tEY1aJVm6O7-62" vertex="1">
          <mxGeometry y="26" width="295" height="26" as="geometry" />
        </mxCell>
        <mxCell id="WScAQku72tEY1aJVm6O7-64" value="" style="line;strokeWidth=1;fillColor=none;align=left;verticalAlign=middle;spacingTop=-1;spacingLeft=3;spacingRight=3;rotatable=0;labelPosition=right;points=[];portConstraint=eastwest;strokeColor=inherit;" parent="WScAQku72tEY1aJVm6O7-62" vertex="1">
          <mxGeometry y="52" width="295" height="8" as="geometry" />
        </mxCell>
        <mxCell id="WScAQku72tEY1aJVm6O7-65" value="+ method(BILL): addBILL()&lt;br&gt;&lt;br&gt;+ method(bill_id): removeBILL()&lt;br&gt;&lt;br&gt;+ method(bill_id): updateBILL()&lt;br&gt;&lt;br&gt;+ method(bill_id): getBILL()&lt;br&gt;&lt;br&gt;+ method(): getALLBILL()&lt;br&gt;" style="text;strokeColor=none;fillColor=none;align=left;verticalAlign=top;spacingLeft=4;spacingRight=4;overflow=hidden;rotatable=0;points=[[0,0.5],[1,0.5]];portConstraint=eastwest;whiteSpace=wrap;html=1;" parent="WScAQku72tEY1aJVm6O7-62" vertex="1">
          <mxGeometry y="60" width="295" height="164" as="geometry" />
        </mxCell>
        <mxCell id="WScAQku72tEY1aJVm6O7-66" value="&lt;p style=&quot;margin:0px;margin-top:4px;text-align:center;text-decoration:underline;&quot;&gt;&lt;b&gt;Object:BillType&lt;/b&gt;&lt;/p&gt;&lt;hr&gt;&lt;p style=&quot;margin:0px;margin-left:8px;&quot;&gt;BillType = Electrcity Bill&lt;br&gt;BillType = Wifi Bill&lt;br&gt;BillType = Mantanice Bill&lt;/p&gt;" style="verticalAlign=top;align=left;overflow=fill;fontSize=12;fontFamily=Helvetica;html=1;whiteSpace=wrap;" parent="WScAQku72tEY1aJVm6O7-51" vertex="1">
          <mxGeometry x="696" y="39" width="160" height="90" as="geometry" />
        </mxCell>
      </root>
    </mxGraphModel>
  </diagram>
</mxfile>
